<?xml version="1.0" encoding="utf-8"?>
<!-- Generator: Adobe Illustrator 27.7.0, SVG Export Plug-In . SVG Version: 6.00 Build 0)  -->
<svg version="1.1" xmlns="http://www.w3.org/2000/svg" xmlns:xlink="http://www.w3.org/1999/xlink" x="0px" y="0px"
	 viewBox="0 0 339 55" style="enable-background:new 0 0 339 55;" xml:space="preserve">
<style type="text/css">
	.st0{fill:#6EECEE;}
</style>
<g id="Capa_1">
</g>
<g id="Capa_2">
	<g>
		<path class="st0" d="M58,45.9V12.3h12c2.8,0,5.2,0.4,7.2,1.3c2,0.9,3.6,2.2,4.7,3.9c1.1,1.7,1.6,3.7,1.6,6.1c0,2.3-0.5,4.4-1.6,6
			c-1.1,1.7-2.6,3-4.7,3.9c-2,0.9-4.4,1.3-7.2,1.3H59.3l1.1-1.2v12.1H58z M60.4,33.9l-1.1-1.2H70c3.6,0,6.4-0.8,8.2-2.4
			c1.9-1.6,2.8-3.8,2.8-6.7c0-2.9-0.9-5.2-2.8-6.7c-1.9-1.6-4.6-2.4-8.2-2.4H59.3l1.1-1.2V33.9z"/>
		<path class="st0" d="M101.7,46.1c-2.1,0-4-0.4-5.6-1.2c-1.6-0.8-2.8-2-3.6-3.6c-0.8-1.6-1.3-3.5-1.3-5.9V20.8h2.4v14.4
			c0,2.8,0.7,5,2.2,6.4c1.4,1.5,3.5,2.2,6.1,2.2c1.9,0,3.5-0.4,4.9-1.2c1.4-0.8,2.4-1.9,3.2-3.4s1.1-3.2,1.1-5.2V20.8h2.4v25.1h-2.3
			v-7l0.3,0.8c-0.7,2-2,3.5-3.7,4.6C106.1,45.5,104.1,46.1,101.7,46.1z"/>
		<path class="st0" d="M135.9,20.6c2,0,3.8,0.4,5.4,1.2s2.7,2,3.6,3.6c0.8,1.6,1.3,3.5,1.3,5.9v14.6h-2.4V31.4c0-2.8-0.7-5-2.1-6.4
			c-1.4-1.5-3.4-2.2-6-2.2c-2,0-3.6,0.4-5.1,1.2c-1.4,0.8-2.5,1.9-3.3,3.4c-0.8,1.4-1.1,3.2-1.1,5.2v13.3h-2.4V20.8h2.3v7l-0.3-0.8
			c0.8-2,2-3.5,3.8-4.7C131.1,21.2,133.3,20.6,135.9,20.6z"/>
		<path class="st0" d="M151.8,22.9v-2.1h15v2.1H151.8z M163.2,46.1c-2.2,0-3.9-0.6-5.1-1.8c-1.2-1.2-1.8-2.9-1.8-5V15.4h2.4V39
			c0,1.6,0.4,2.8,1.2,3.7c0.8,0.9,2,1.3,3.5,1.3c1.6,0,2.9-0.5,3.9-1.4l1,1.7c-0.6,0.6-1.4,1.1-2.3,1.3
			C165.1,45.9,164.2,46.1,163.2,46.1z"/>
		<path class="st0" d="M183.9,46.1c-2.4,0-4.5-0.5-6.4-1.6c-1.9-1.1-3.4-2.6-4.5-4.5c-1.1-1.9-1.7-4.1-1.7-6.6
			c0-2.5,0.6-4.7,1.7-6.6c1.1-1.9,2.6-3.4,4.5-4.5c1.9-1.1,4-1.6,6.4-1.6c2.4,0,4.5,0.5,6.4,1.6c1.9,1.1,3.4,2.6,4.5,4.5
			c1.1,1.9,1.6,4.1,1.6,6.6c0,2.5-0.5,4.7-1.6,6.6c-1.1,1.9-2.6,3.4-4.5,4.5C188.5,45.5,186.3,46.1,183.9,46.1z M183.9,43.9
			c1.9,0,3.6-0.4,5.2-1.3c1.5-0.9,2.7-2.1,3.6-3.7s1.3-3.4,1.3-5.5c0-2.1-0.4-4-1.3-5.5s-2.1-2.8-3.6-3.7c-1.5-0.9-3.3-1.3-5.2-1.3
			s-3.6,0.4-5.2,1.3c-1.5,0.9-2.7,2.1-3.6,3.7c-0.9,1.6-1.3,3.4-1.3,5.5c0,2.1,0.4,3.9,1.3,5.5c0.9,1.6,2.1,2.8,3.6,3.7
			C180.3,43.5,182,43.9,183.9,43.9z"/>
		<path class="st0" d="M213.5,46.1c-2.5,0-4.9-0.4-7.1-1.3c-2.2-0.8-3.9-1.9-5.2-3.3l1.1-1.8c1.2,1.2,2.7,2.2,4.7,3
			c2,0.8,4.1,1.2,6.4,1.2s4.1-0.3,5.5-0.9c1.4-0.6,2.5-1.4,3.2-2.4c0.7-1,1-2.1,1-3.3c0-1.4-0.4-2.6-1.2-3.5c-0.8-0.9-1.8-1.6-3-2.1
			c-1.2-0.5-2.6-0.9-4.1-1.3c-1.5-0.4-3-0.7-4.5-1.1c-1.5-0.4-2.9-0.9-4.1-1.6c-1.2-0.6-2.2-1.5-3-2.6c-0.8-1.1-1.1-2.5-1.1-4.3
			c0-1.6,0.4-3.1,1.2-4.4c0.8-1.3,2.1-2.4,3.9-3.3c1.8-0.8,4-1.2,6.8-1.2c1.9,0,3.7,0.3,5.5,0.8c1.8,0.5,3.4,1.3,4.6,2.2l-0.9,2
			c-1.4-1-2.9-1.7-4.5-2.1c-1.6-0.5-3.2-0.7-4.7-0.7c-2.1,0-3.9,0.3-5.3,0.9c-1.4,0.6-2.4,1.4-3.1,2.4c-0.7,1-1,2.1-1,3.4
			c0,1.4,0.4,2.6,1.1,3.5c0.8,0.9,1.8,1.6,3,2.1c1.2,0.5,2.6,0.9,4.1,1.3c1.5,0.4,3,0.7,4.5,1.1c1.5,0.4,2.8,0.9,4.1,1.6
			c1.2,0.6,2.3,1.5,3,2.6c0.8,1.1,1.2,2.5,1.2,4.2c0,1.6-0.4,3-1.3,4.4c-0.9,1.4-2.2,2.4-4,3.3C218.5,45.7,216.3,46.1,213.5,46.1z"
			/>
		<path class="st0" d="M239.9,46.1c-1.9,0-3.5-0.3-4.8-0.9c-1.4-0.6-2.4-1.4-3.1-2.5s-1.1-2.3-1.1-3.7c0-1.3,0.3-2.4,0.9-3.5
			c0.6-1,1.6-1.9,3-2.5c1.4-0.7,3.2-1,5.5-1h9.2v1.9h-9.2c-2.6,0-4.4,0.5-5.4,1.4c-1,1-1.6,2.2-1.6,3.6c0,1.6,0.6,2.9,1.8,3.8
			s2.9,1.4,5.1,1.4c2.1,0,3.9-0.5,5.4-1.4s2.5-2.4,3.2-4.2l0.7,1.6c-0.7,1.8-1.8,3.3-3.4,4.3C244.4,45.5,242.4,46.1,239.9,46.1z
			 M248.9,45.9v-5.7l-0.1-0.9v-9.4c0-2.3-0.6-4.1-1.9-5.3c-1.3-1.2-3.1-1.8-5.5-1.8c-1.7,0-3.3,0.3-4.8,0.9
			c-1.5,0.6-2.8,1.4-3.8,2.3l-1.2-1.7c1.2-1.1,2.8-2,4.5-2.6s3.6-0.9,5.5-0.9c3.1,0,5.5,0.8,7.2,2.4c1.7,1.6,2.5,3.9,2.5,7v15.9
			H248.9z"/>
		<path class="st0" d="M261.1,45.9V10.3h2.4v35.6H261.1z"/>
		<path class="st0" d="M283.8,46.1c-2.1,0-4-0.4-5.6-1.2c-1.6-0.8-2.8-2-3.6-3.6c-0.8-1.6-1.3-3.5-1.3-5.9V20.8h2.4v14.4
			c0,2.8,0.7,5,2.2,6.4c1.4,1.5,3.5,2.2,6.1,2.2c1.9,0,3.5-0.4,4.9-1.2c1.4-0.8,2.4-1.9,3.2-3.4s1.1-3.2,1.1-5.2V20.8h2.4v25.1h-2.3
			v-7l0.3,0.8c-0.7,2-2,3.5-3.7,4.6C288.2,45.5,286.2,46.1,283.8,46.1z"/>
		<path class="st0" d="M315.4,46.1c-2.3,0-4.4-0.5-6.3-1.6c-1.9-1.1-3.4-2.6-4.4-4.5c-1.1-1.9-1.6-4.1-1.6-6.6
			c0-2.5,0.5-4.7,1.6-6.6c1.1-1.9,2.6-3.4,4.4-4.5c1.9-1.1,4-1.6,6.3-1.6c2.2,0,4.2,0.5,6,1.5c1.8,1,3.2,2.5,4.2,4.4
			c1,1.9,1.6,4.2,1.6,6.8c0,2.6-0.5,4.8-1.5,6.8c-1,1.9-2.4,3.4-4.2,4.4C319.6,45.6,317.6,46.1,315.4,46.1z M315.5,43.9
			c1.9,0,3.6-0.4,5.2-1.3c1.5-0.9,2.7-2.1,3.6-3.7s1.3-3.4,1.3-5.5c0-2.1-0.4-4-1.3-5.5s-2.1-2.8-3.6-3.7c-1.5-0.9-3.2-1.3-5.2-1.3
			s-3.6,0.4-5.2,1.3c-1.5,0.9-2.7,2.1-3.6,3.7c-0.9,1.6-1.3,3.4-1.3,5.5c0,2.1,0.4,3.9,1.3,5.5c0.9,1.6,2.1,2.8,3.6,3.7
			C311.9,43.5,313.6,43.9,315.5,43.9z M325.7,45.9v-8.2l0.4-4.4l-0.5-4.4V10.3h2.4v35.6H325.7z"/>
	</g>
	<circle class="st0" cx="31.1" cy="28.9" r="18.1"/>
</g>
</svg>
